<svg id="visual" viewBox="0 0 960 540" width="960" height="540" xmlns="http://www.w3.org/2000/svg" xmlns:xlink="http://www.w3.org/1999/xlink" version="1.1"><rect x="0" y="0" width="960" height="540" fill="#ffffff"></rect><path d="M0 333L22.8 340C45.7 347 91.3 361 137 361C182.7 361 228.3 347 274 347C319.7 347 365.3 361 411.2 364.5C457 368 503 361 548.8 355.7C594.7 350.3 640.3 346.7 686 349C731.7 351.3 777.3 359.7 823 364C868.7 368.3 914.3 368.7 937.2 368.8L960 369L960 541L937.2 541C914.3 541 868.7 541 823 541C777.3 541 731.7 541 686 541C640.3 541 594.7 541 548.8 541C503 541 457 541 411.2 541C365.3 541 319.7 541 274 541C228.3 541 182.7 541 137 541C91.3 541 45.7 541 22.8 541L0 541Z" fill="#f4c0ff"></path><path d="M0 425L22.8 420.8C45.7 416.7 91.3 408.3 137 402.5C182.7 396.7 228.3 393.3 274 389.3C319.7 385.3 365.3 380.7 411.2 379.2C457 377.7 503 379.3 548.8 381.2C594.7 383 640.3 385 686 393.2C731.7 401.3 777.3 415.7 823 410.3C868.7 405 914.3 380 937.2 367.5L960 355L960 541L937.2 541C914.3 541 868.7 541 823 541C777.3 541 731.7 541 686 541C640.3 541 594.7 541 548.8 541C503 541 457 541 411.2 541C365.3 541 319.7 541 274 541C228.3 541 182.7 541 137 541C91.3 541 45.7 541 22.8 541L0 541Z" fill="#e69df6"></path><path d="M0 447L22.8 443.5C45.7 440 91.3 433 137 430.8C182.7 428.7 228.3 431.3 274 436.7C319.7 442 365.3 450 411.2 447.2C457 444.3 503 430.7 548.8 423.8C594.7 417 640.3 417 686 420.5C731.7 424 777.3 431 823 435.2C868.7 439.3 914.3 440.7 937.2 441.3L960 442L960 541L937.2 541C914.3 541 868.7 541 823 541C777.3 541 731.7 541 686 541C640.3 541 594.7 541 548.8 541C503 541 457 541 411.2 541C365.3 541 319.7 541 274 541C228.3 541 182.7 541 137 541C91.3 541 45.7 541 22.8 541L0 541Z" fill="#d779ec"></path><path d="M0 475L22.8 475C45.7 475 91.3 475 137 474.2C182.7 473.3 228.3 471.7 274 464.7C319.7 457.7 365.3 445.3 411.2 441.5C457 437.7 503 442.3 548.8 447.3C594.7 452.3 640.3 457.7 686 462.8C731.7 468 777.3 473 823 472C868.7 471 914.3 464 937.2 460.5L960 457L960 541L937.2 541C914.3 541 868.7 541 823 541C777.3 541 731.7 541 686 541C640.3 541 594.7 541 548.8 541C503 541 457 541 411.2 541C365.3 541 319.7 541 274 541C228.3 541 182.7 541 137 541C91.3 541 45.7 541 22.8 541L0 541Z" fill="#c751e2"></path><path d="M0 487L22.8 488.5C45.7 490 91.3 493 137 493C182.7 493 228.3 490 274 486.3C319.7 482.7 365.3 478.3 411.2 482.2C457 486 503 498 548.8 504.2C594.7 510.3 640.3 510.7 686 511C731.7 511.3 777.3 511.7 823 511.8C868.7 512 914.3 512 937.2 512L960 512L960 541L937.2 541C914.3 541 868.7 541 823 541C777.3 541 731.7 541 686 541C640.3 541 594.7 541 548.8 541C503 541 457 541 411.2 541C365.3 541 319.7 541 274 541C228.3 541 182.7 541 137 541C91.3 541 45.7 541 22.8 541L0 541Z" fill="#b516d8"></path></svg>